<svg width="20" height="20" viewBox="0 0 20 20" fill="none" xmlns="http://www.w3.org/2000/svg">
<path fill-rule="evenodd" clip-rule="evenodd" d="M8 4V16C8 17.4001 8 18.1002 7.72752 18.635C7.48783 19.1054 7.10538 19.4878 6.63498 19.7275C6.1002 20 5.40013 20 4 20C2.59987 20 1.8998 20 1.36502 19.7275C0.89462 19.4878 0.51217 19.1054 0.27248 18.635C0 18.1002 0 17.4001 0 16V4C0 2.59987 0 1.8998 0.27248 1.36502C0.51217 0.89462 0.89462 0.51217 1.36502 0.27248C1.8998 0 2.59987 0 4 0C5.40013 0 6.1002 0 6.63498 0.27248C7.10538 0.51217 7.48783 0.89462 7.72752 1.36502C8 1.8998 8 2.59987 8 4Z" fill="black" style="fill:black;fill-opacity:1;"/>
<path d="M17.0599 8.6144L11.2219 14.704C10.492 15.4653 10.1271 15.8459 9.8135 15.7199C9.5 15.5939 9.5 15.0666 9.5 14.0119V5.7738C9.5012 5.11381 9.7633 4.48107 10.2291 4.01357L11.2839 2.95882L11.7141 2.62987C12.7183 1.86212 13.2204 1.47825 13.7673 1.3603C14.2175 1.26322 14.6857 1.29236 15.1204 1.4445C15.6484 1.62934 16.099 2.0725 17.0003 2.95883C17.9999 3.95839 18.4997 4.45818 18.685 5.03056C18.843 5.51871 18.847 6.04366 18.6964 6.53417C18.5199 7.10931 18.0332 7.61101 17.0599 8.6144Z" fill="black" style="fill:black;fill-opacity:1;"/>
<path d="M10.7897 20H15.8994C17.2995 20 17.9996 20 18.5344 19.7275C19.0048 19.4878 19.3872 19.1054 19.6269 18.635C19.8994 18.1002 19.8994 17.4001 19.8994 16C19.8994 14.5999 19.8994 13.8998 19.6269 13.365C19.3872 12.8946 19.0048 12.5122 18.5344 12.2725C17.9996 12 17.2995 12 15.8994 12H15.6797L9.878 17.798C9.636 18.0399 9.5 18.3391 9.5 18.6813C9.5 19.3936 10.0774 20 10.7897 20Z" fill="black" style="fill:black;fill-opacity:1;"/>
</svg>
