<svg width="651" height="73" viewBox="0 0 651 73" fill="none" xmlns="http://www.w3.org/2000/svg">
<path d="M121.096 42.3575H130.184C129.288 47.5415 125.576 60.0855 104.2 60.0855C89.4802 60.0855 77.8962 51.8935 77.8962 34.9335C77.8962 21.3655 86.4082 11.2535 104.904 11.2535C125.704 11.2535 128.776 24.7575 129.48 27.2535H120.392C119.88 25.6535 116.296 19.0615 105.416 19.0615C92.5522 19.0615 87.1762 26.2935 87.1762 35.9575C87.1762 46.6455 94.9202 52.2775 104.904 52.2775C115.528 52.2775 120.2 45.9415 121.096 42.3575Z" fill="url(#paint0_radial_92_10)"/>
<path d="M153.971 60.0855C144.563 60.0855 134.707 55.4135 134.707 41.7175C134.707 32.5015 140.275 23.4135 153.971 23.4135C167.667 23.4135 173.235 32.5015 173.235 41.7175C173.235 55.4135 163.379 60.0855 153.971 60.0855ZM153.971 53.3015C161.075 53.3015 165.171 48.8855 165.171 41.5895C165.171 33.5255 159.987 30.1975 153.971 30.1975C147.891 30.1975 142.771 33.5255 142.771 41.5895C142.771 48.8855 146.867 53.3015 153.971 53.3015Z" fill="url(#paint1_radial_92_10)"/>
<path d="M180.212 58.9335V12.4055H188.148V58.9335H180.212Z" fill="url(#paint2_radial_92_10)"/>
<path d="M214.409 60.0855C205.001 60.0855 195.145 55.4135 195.145 41.7175C195.145 32.5015 200.713 23.4135 214.409 23.4135C228.105 23.4135 233.673 32.5015 233.673 41.7175C233.673 55.4135 223.817 60.0855 214.409 60.0855ZM214.409 53.3015C221.513 53.3015 225.609 48.8855 225.609 41.5895C225.609 33.5255 220.425 30.1975 214.409 30.1975C208.329 30.1975 203.209 33.5255 203.209 41.5895C203.209 48.8855 207.305 53.3015 214.409 53.3015Z" fill="url(#paint3_radial_92_10)"/>
<path d="M240.01 58.9335V24.5655H247.946V29.6855H248.138C249.866 26.8695 253.322 23.4135 260.17 23.4135C261.322 23.4135 262.154 23.4135 262.986 23.5415V32.1175C262.218 31.9255 260.746 31.4775 258.122 31.4775C248.01 31.5415 248.01 38.2615 247.946 40.6935V58.9335H240.01Z" fill="url(#paint4_radial_92_10)"/>
<path d="M280.863 58.9335H272.927V32.5015H265.311V25.7175H272.927V21.7495C272.927 11.1255 283.807 11.2535 286.431 11.2535C289.439 11.2535 291.551 11.6375 295.007 12.2775V19.0615C290.847 18.1015 289.823 18.1015 288.031 18.0375C281.567 17.7815 280.863 21.1735 280.863 23.3495V25.7175H293.215V32.5015H280.863V58.9335Z" fill="url(#paint5_radial_92_10)"/>
<path d="M334.559 24.5655V58.9335H326.751V54.6455C324.383 57.0775 320.863 60.0855 313.887 60.0855C306.719 60.0855 300.447 57.0775 300.447 46.5815V24.5655H308.383V43.6375C308.383 50.4215 310.431 53.3015 315.743 53.3015C322.079 53.3015 324.639 50.6775 326.623 48.2455V24.5655H334.559Z" fill="url(#paint6_radial_92_10)"/>
<path d="M343.775 58.9335V12.4055H351.711V58.9335H343.775Z" fill="url(#paint7_radial_92_10)"/>
<path d="M362.288 58.9335V12.4055H388.208C396.08 12.4055 409.008 12.4055 409.008 26.6775C409.008 40.8855 396.08 40.8855 388.208 40.8855H371.376V58.9335H362.288ZM371.376 33.0775H390.192C395.376 33.0775 399.92 32.6295 399.92 26.6135C399.92 20.6615 395.376 20.2135 390.192 20.2135H371.376V33.0775Z" fill="black" style="fill:black;fill-opacity:1;"/>
<path d="M448.433 36.2135V53.3655C448.433 55.6695 448.561 57.9735 449.073 58.9335H440.945C440.689 57.7815 440.497 56.6295 440.497 55.4775C437.169 57.3975 432.241 60.0855 425.457 60.0855C420.913 60.0855 412.145 58.1655 412.145 49.7175C412.145 38.1335 429.425 36.4695 440.497 35.8295V34.2935C440.497 31.6695 438.129 29.8135 431.601 29.8135C424.305 29.8135 422.769 32.5015 422.321 34.3575H414.065C415.985 25.0135 425.137 23.4135 431.537 23.4135C448.113 23.4135 448.433 31.4775 448.433 36.2135ZM440.497 49.4615V41.5895C435.889 41.7815 431.857 42.4215 428.145 43.3175C423.217 44.4695 420.913 46.1335 420.849 49.1415C420.785 52.0855 422.705 53.9415 426.609 53.9415C432.625 53.9415 437.425 51.3175 440.497 49.4615Z" fill="black" style="fill:black;fill-opacity:1;"/>
<path d="M457.712 58.9335V12.4055H465.648V58.9335H457.712Z" fill="black" style="fill:black;fill-opacity:1;"/>
<path d="M481.157 37.8135H502.597C501.381 31.9895 497.413 29.8135 491.717 29.8135C487.557 29.8135 482.757 31.2215 481.157 37.8135ZM501.701 48.6295H510.405C509.829 51.4455 505.221 60.0855 492.485 60.0855C480.197 60.0855 472.837 52.4055 472.837 41.6535C472.837 31.9255 479.237 23.4135 491.909 23.4135C504.837 23.5415 511.045 31.5415 511.045 43.9575H480.901C481.221 46.1335 482.437 53.3015 492.229 53.6855C497.221 53.6855 500.549 51.3175 501.701 48.6295Z" fill="black" style="fill:black;fill-opacity:1;"/>
<path d="M513.86 32.5015V25.7175H520.004V14.5175H527.94V25.7175H539.908V32.5015H527.94V48.2455C527.94 50.6775 528.9 53.3015 533.508 53.3015C535.044 53.3015 538.244 52.9175 540.292 52.3415V59.3175C536.388 59.8295 534.532 60.0855 531.716 60.0855C524.164 60.0855 520.004 57.6535 520.004 50.1015V32.5015H513.86Z" fill="black" style="fill:black;fill-opacity:1;"/>
<path d="M542.298 32.5015V25.7175H548.442V14.5175H556.378V25.7175H568.346V32.5015H556.378V48.2455C556.378 50.6775 557.338 53.3015 561.946 53.3015C563.482 53.3015 566.682 52.9175 568.73 52.3415V59.3175C564.826 59.8295 562.97 60.0855 560.154 60.0855C552.602 60.0855 548.442 57.6535 548.442 50.1015V32.5015H542.298Z" fill="black" style="fill:black;fill-opacity:1;"/>
<path d="M580.719 37.8135H602.159C600.943 31.9895 596.975 29.8135 591.279 29.8135C587.119 29.8135 582.319 31.2215 580.719 37.8135ZM601.263 48.6295H609.967C609.391 51.4455 604.783 60.0855 592.047 60.0855C579.759 60.0855 572.399 52.4055 572.399 41.6535C572.399 31.9255 578.799 23.4135 591.471 23.4135C604.399 23.5415 610.607 31.5415 610.607 43.9575H580.463C580.783 46.1335 581.999 53.3015 591.791 53.6855C596.783 53.6855 600.111 51.3175 601.263 48.6295Z" fill="black" style="fill:black;fill-opacity:1;"/>
<path d="M649.647 31.4775L643.055 35.1255C641.839 33.5255 639.087 29.7495 631.855 29.7495C626.095 29.7495 624.175 31.9895 624.175 33.9095C624.175 36.5975 627.503 37.0455 632.239 37.6855C641.647 38.9015 650.223 40.3095 650.223 48.8215C650.223 58.9335 638.639 60.0855 633.071 60.0855C621.231 60.0855 617.519 55.3495 614.575 51.7015L621.295 47.7975C624.047 52.2775 628.847 53.6855 633.839 53.6855C638.063 53.6855 641.903 52.4055 641.903 49.3975C641.903 46.7735 639.983 46.5175 631.535 45.3655C618.543 43.7015 615.855 39.5415 615.855 34.2935C615.855 30.7095 618.671 23.3495 632.047 23.3495C635.951 23.3495 644.463 24.2455 649.647 31.4775Z" fill="black" style="fill:black;fill-opacity:1;"/>
<path d="M9.71568 16.8719C8.85803 13.6711 10.7575 10.3811 13.9583 9.52342L48.7317 0.205934C51.9324 -0.651717 55.2225 1.24778 56.0801 4.44858L65.3976 39.2219C66.2553 42.4227 64.3558 45.7127 61.155 46.5704L26.3816 55.8879C23.1808 56.7455 19.8908 54.846 19.0332 51.6452L9.71568 16.8719Z" fill="#D1D5DC" style="fill:#D1D5DC;fill:color(display-p3 0.8190 0.8358 0.8610);fill-opacity:1;"/>
<path d="M4.60112 22.902C4.02935 20.7681 5.29568 18.5748 7.42955 18.003L46.0666 7.65024C48.2004 7.07847 50.3938 8.3448 50.9656 10.4787L61.3183 49.1157C61.8901 51.2496 60.6238 53.4429 58.4899 54.0147L19.8529 64.3674C17.719 64.9392 15.5256 63.6729 14.9539 61.539L4.60112 22.902Z" fill="#99A1AF" style="fill:#99A1AF;fill:color(display-p3 0.6000 0.6314 0.6852);fill-opacity:1;"/>
<path d="M0.274579 36.0526C-0.868955 31.7849 1.6637 27.3982 5.93143 26.2546L36.8411 17.9724C41.1088 16.8289 45.4955 19.3615 46.639 23.6293L54.9212 54.5389C56.0648 58.8066 53.5321 63.1933 49.2644 64.3369L18.3547 72.6191C14.087 73.7626 9.70032 71.2299 8.55679 66.9622L0.274579 36.0526Z" fill="#E5E7EB" style="fill:#E5E7EB;fill:color(display-p3 0.8983 0.9064 0.9226);fill-opacity:1;"/>
<defs>
<radialGradient id="paint0_radial_92_10" cx="0" cy="0" r="1" gradientUnits="userSpaceOnUse" gradientTransform="translate(75.7842 26.295) rotate(9.44258) scale(345.232 282.66)">
<stop stop-color="#4800FF" style="stop-color:#4800FF;stop-color:color(display-p3 0.2833 0.0000 1.0000);stop-opacity:1;"/>
<stop offset="0.5" stop-color="#FF00A2" style="stop-color:#FF00A2;stop-color:color(display-p3 1.0000 0.0000 0.6333);stop-opacity:1;"/>
<stop offset="1" stop-color="#FF005E" style="stop-color:#FF005E;stop-color:color(display-p3 1.0000 0.0000 0.3667);stop-opacity:1;"/>
</radialGradient>
<radialGradient id="paint1_radial_92_10" cx="0" cy="0" r="1" gradientUnits="userSpaceOnUse" gradientTransform="translate(75.7842 26.295) rotate(9.44258) scale(345.232 282.66)">
<stop stop-color="#4800FF" style="stop-color:#4800FF;stop-color:color(display-p3 0.2833 0.0000 1.0000);stop-opacity:1;"/>
<stop offset="0.5" stop-color="#FF00A2" style="stop-color:#FF00A2;stop-color:color(display-p3 1.0000 0.0000 0.6333);stop-opacity:1;"/>
<stop offset="1" stop-color="#FF005E" style="stop-color:#FF005E;stop-color:color(display-p3 1.0000 0.0000 0.3667);stop-opacity:1;"/>
</radialGradient>
<radialGradient id="paint2_radial_92_10" cx="0" cy="0" r="1" gradientUnits="userSpaceOnUse" gradientTransform="translate(75.7842 26.295) rotate(9.44258) scale(345.232 282.66)">
<stop stop-color="#4800FF" style="stop-color:#4800FF;stop-color:color(display-p3 0.2833 0.0000 1.0000);stop-opacity:1;"/>
<stop offset="0.5" stop-color="#FF00A2" style="stop-color:#FF00A2;stop-color:color(display-p3 1.0000 0.0000 0.6333);stop-opacity:1;"/>
<stop offset="1" stop-color="#FF005E" style="stop-color:#FF005E;stop-color:color(display-p3 1.0000 0.0000 0.3667);stop-opacity:1;"/>
</radialGradient>
<radialGradient id="paint3_radial_92_10" cx="0" cy="0" r="1" gradientUnits="userSpaceOnUse" gradientTransform="translate(75.7842 26.295) rotate(9.44258) scale(345.232 282.66)">
<stop stop-color="#4800FF" style="stop-color:#4800FF;stop-color:color(display-p3 0.2833 0.0000 1.0000);stop-opacity:1;"/>
<stop offset="0.5" stop-color="#FF00A2" style="stop-color:#FF00A2;stop-color:color(display-p3 1.0000 0.0000 0.6333);stop-opacity:1;"/>
<stop offset="1" stop-color="#FF005E" style="stop-color:#FF005E;stop-color:color(display-p3 1.0000 0.0000 0.3667);stop-opacity:1;"/>
</radialGradient>
<radialGradient id="paint4_radial_92_10" cx="0" cy="0" r="1" gradientUnits="userSpaceOnUse" gradientTransform="translate(75.7842 26.295) rotate(9.44258) scale(345.232 282.66)">
<stop stop-color="#4800FF" style="stop-color:#4800FF;stop-color:color(display-p3 0.2833 0.0000 1.0000);stop-opacity:1;"/>
<stop offset="0.5" stop-color="#FF00A2" style="stop-color:#FF00A2;stop-color:color(display-p3 1.0000 0.0000 0.6333);stop-opacity:1;"/>
<stop offset="1" stop-color="#FF005E" style="stop-color:#FF005E;stop-color:color(display-p3 1.0000 0.0000 0.3667);stop-opacity:1;"/>
</radialGradient>
<radialGradient id="paint5_radial_92_10" cx="0" cy="0" r="1" gradientUnits="userSpaceOnUse" gradientTransform="translate(75.7842 26.295) rotate(9.44258) scale(345.232 282.66)">
<stop stop-color="#4800FF" style="stop-color:#4800FF;stop-color:color(display-p3 0.2833 0.0000 1.0000);stop-opacity:1;"/>
<stop offset="0.5" stop-color="#FF00A2" style="stop-color:#FF00A2;stop-color:color(display-p3 1.0000 0.0000 0.6333);stop-opacity:1;"/>
<stop offset="1" stop-color="#FF005E" style="stop-color:#FF005E;stop-color:color(display-p3 1.0000 0.0000 0.3667);stop-opacity:1;"/>
</radialGradient>
<radialGradient id="paint6_radial_92_10" cx="0" cy="0" r="1" gradientUnits="userSpaceOnUse" gradientTransform="translate(75.7842 26.295) rotate(9.44258) scale(345.232 282.66)">
<stop stop-color="#4800FF" style="stop-color:#4800FF;stop-color:color(display-p3 0.2833 0.0000 1.0000);stop-opacity:1;"/>
<stop offset="0.5" stop-color="#FF00A2" style="stop-color:#FF00A2;stop-color:color(display-p3 1.0000 0.0000 0.6333);stop-opacity:1;"/>
<stop offset="1" stop-color="#FF005E" style="stop-color:#FF005E;stop-color:color(display-p3 1.0000 0.0000 0.3667);stop-opacity:1;"/>
</radialGradient>
<radialGradient id="paint7_radial_92_10" cx="0" cy="0" r="1" gradientUnits="userSpaceOnUse" gradientTransform="translate(75.7842 26.295) rotate(9.44258) scale(345.232 282.66)">
<stop stop-color="#4800FF" style="stop-color:#4800FF;stop-color:color(display-p3 0.2833 0.0000 1.0000);stop-opacity:1;"/>
<stop offset="0.5" stop-color="#FF00A2" style="stop-color:#FF00A2;stop-color:color(display-p3 1.0000 0.0000 0.6333);stop-opacity:1;"/>
<stop offset="1" stop-color="#FF005E" style="stop-color:#FF005E;stop-color:color(display-p3 1.0000 0.0000 0.3667);stop-opacity:1;"/>
</radialGradient>
</defs>
</svg>
